# xmcd CD database file
#
# Track frame offsets:
#	150
#	20067
#	43817
#	72067
#	94697
#	106745
#	136060
#	169367
#	195997
#
# Disc length: 2884 seconds
#
# Revision: 0
# Processed by: cddbd v1.5.1PL2 Copyright (c) Steve Scherf et al.
# Submitted via: CDex 1.51
#
DISCID=710b4209
DTITLE=Charlie Mingus - His Final Work
DYEAR=1900
DGENRE=Jazz
TTITLE0=Just for Laughs Part 1
TTITLE1=Peggy's Blue Skylight
TTITLE2=Caroline Keikki Mingus
TTITLE3=Slop
TTITLE4=Just for Laughs Part 2
TTITLE5=Fables of Faubus
TTITLE6=Duke Ellington's The Sound of Love
TTITLE7=Farwell Farewell
TTITLE8=So long Eric
EXTD=
EXTT0=
EXTT1=
EXTT2=
EXTT3=
EXTT4=
EXTT5=
EXTT6=
EXTT7=
EXTT8=
PLAYORDER=
